<svg width="120" height="56" viewBox="0 0 120 56" fill="none" xmlns="http://www.w3.org/2000/svg">
<g clip-path="url(#clip0_8_17)">
<path d="M18.1548 42.3806C17.898 40.84 16.6293 39.526 14.3789 39.526C13.3367 39.526 12.6419 39.7526 11.9471 40.1755L10.7539 41.7161C10.2706 40.4775 9.0623 39.526 7.14412 39.526C6.10195 39.526 5.40717 39.7526 4.7124 40.1755L3.80617 41.6405V39.813H0V51.1106H3.80617V45.1446C3.80617 43.2264 4.28949 42.1088 5.5129 42.1088C6.50975 42.1088 7.00818 42.7431 7.14412 43.8155C7.20453 44.3894 7.21964 44.9936 7.21964 45.3561V51.1106H11.0258V45.1446C11.0258 43.2264 11.5242 42.1088 12.7476 42.1088C13.7445 42.1088 14.2429 42.7431 14.3789 43.8155C14.4393 44.3894 14.4544 44.9936 14.4544 45.3561V51.1106H18.2605V44.5103C18.2605 43.604 18.2454 42.9546 18.1548 42.3806ZM27.0359 51.1106H30.7665C30.5853 49.857 30.5551 49.1018 30.5551 48.256V45.0842C30.5551 44.3894 30.5249 43.7249 30.4795 43.166C30.3134 41.1119 29.09 39.526 25.5104 39.526C22.6558 39.526 20.3147 41.0213 20.2996 43.6645L23.8943 43.6494C23.9547 42.6676 24.4531 42.1088 25.3442 42.1088C26.175 42.1088 26.6432 42.6072 26.7036 43.1811C26.7489 43.5436 26.7489 43.7702 26.7489 44.0118V44.178H26.0239C22.2026 44.178 19.9069 45.6582 19.9069 48.0597C19.9069 50.2497 21.674 51.4127 23.5318 51.4127C24.5588 51.4127 25.5104 51.156 26.326 50.6424L26.7791 49.4643L27.0359 51.1106ZM25.0875 48.83C24.3323 48.83 23.8037 48.4524 23.8037 47.7727C23.8037 46.655 25.0271 46.2019 26.7489 46.3378V47.0779C26.7489 48.256 25.8578 48.83 25.0875 48.83ZM37.4877 39.526C34.4821 39.526 32.5337 40.9156 32.5337 43.166C32.5337 45.0842 33.8326 46.0811 35.9773 46.5795C37.9862 47.0477 38.7111 47.4555 38.7111 48.1654C38.7111 48.7696 38.1825 49.0414 37.5028 49.0414C36.7023 49.0414 36.0227 48.4675 35.8112 47.6066H32.0655C32.3675 50.144 34.467 51.4127 37.533 51.4127C40.2517 51.4127 42.5173 50.2799 42.5173 47.8784C42.5173 45.7035 41.0522 44.8123 39.0132 44.2988C36.8534 43.7702 36.3398 43.3473 36.3398 42.7129C36.3398 42.2296 36.7174 41.8973 37.2461 41.8973C37.9257 41.8973 38.3033 42.3353 38.4846 43.1207H42.2152C41.9283 41.0666 40.297 39.526 37.4877 39.526ZM55.3556 42.5921C55.0535 40.6286 53.679 39.526 51.3531 39.526C50.326 39.526 49.5104 39.7526 48.8156 40.1755L47.8037 41.5801V35.4631H43.9975V51.1106H47.8037V45.779C47.8037 43.2264 48.6344 42.1088 49.7974 42.1088C50.9301 42.1088 51.5192 42.7431 51.6098 43.8155C51.6551 44.3894 51.6551 44.9936 51.6551 45.3561V51.1106H55.4613V44.7217C55.4613 43.8155 55.4311 43.166 55.3556 42.5921ZM59.5242 35.2365C58.331 35.2365 57.5456 35.9464 57.5456 37.0943C57.5456 38.2271 58.331 38.9521 59.5242 38.9521C60.7023 38.9521 61.4877 38.2271 61.4877 37.0943C61.4877 35.9464 60.7023 35.2365 59.5242 35.2365ZM61.4273 51.1106V39.813H57.6212V51.1106H61.4273ZM75.0661 42.5921C74.764 40.6286 73.3896 39.526 71.0636 39.526C70.0214 39.526 69.2209 39.7526 68.5261 40.1755L67.5142 41.5801V39.813H63.708V51.1106H67.5142V45.779C67.5142 43.2264 68.3298 42.1088 69.4928 42.1088C70.6407 42.1088 71.2297 42.7431 71.3203 43.8155C71.3656 44.3894 71.3656 44.9936 71.3656 45.3561V51.1106H75.1718V44.7217C75.1718 43.8155 75.1416 43.166 75.0661 42.5921ZM83.9471 51.1106H87.6627C87.4965 49.857 87.4512 49.1018 87.4512 48.256V45.0842C87.4512 44.3894 87.4361 43.7249 87.3908 43.166C87.2247 41.1119 85.9862 39.526 82.4217 39.526C79.567 39.526 77.2108 41.0213 77.1957 43.6645L80.7904 43.6494C80.8509 42.6676 81.3644 42.1088 82.2555 42.1088C83.0711 42.1088 83.5393 42.6072 83.5998 43.1811C83.6451 43.5436 83.6451 43.7702 83.6451 44.0118V44.178H82.9201C79.0988 44.178 76.8181 45.6582 76.8181 48.0597C76.8181 50.2497 78.5702 51.4127 80.4279 51.4127C81.4701 51.4127 82.4217 51.156 83.2222 50.6424L83.6904 49.4643L83.9471 51.1106ZM81.9987 48.83C81.2285 48.83 80.6998 48.4524 80.6998 47.7727C80.6998 46.655 81.9383 46.2019 83.6451 46.3378V47.0779C83.6451 48.256 82.7539 48.83 81.9987 48.83ZM91.5595 47.1836C90.3059 47.1836 89.4449 48.0446 89.4449 49.2982C89.4449 50.5367 90.3059 51.4127 91.5595 51.4127C92.798 51.4127 93.674 50.5367 93.674 49.2982C93.674 48.0446 92.798 47.1836 91.5595 47.1836ZM99.9723 46.9269L102.993 51.1106H107.66L102.827 44.9936L107.6 39.813H103.144L99.1718 44.5556V35.5688H95.3656V51.1106H99.1718V47.818L99.9723 46.9269ZM120 39.813H116.194V41.278L115.454 40.0697C114.88 39.7375 113.777 39.526 112.841 39.526C109.956 39.526 107.494 41.5348 107.494 45.5524C107.494 48.8904 109.609 50.9898 112.675 50.9898C113.823 50.9898 114.714 50.7482 115.348 50.2799L116.194 49.0414V49.3586C116.194 49.9628 116.164 50.4914 116.149 50.8388C116.043 52.3643 115.001 52.9684 113.581 52.9684C112.403 52.9684 111.542 52.5455 111.451 51.8054L111.436 51.594H107.751L107.766 51.8054C108.053 54.3882 110.092 55.7626 113.475 55.7626C117.312 55.7626 119.849 54.1163 119.97 50.4159C120 49.7966 120 48.9357 120 48.2409V39.813ZM113.777 48.4071C112.448 48.4071 111.391 47.3951 111.391 45.2806C111.391 42.9697 112.403 42.1088 113.883 42.1088C115.031 42.1088 116.194 42.864 116.194 45.1295V45.1899C116.194 47.5612 115.167 48.4071 113.777 48.4071Z" fill="white"/>
<path d="M37.4254 20.0753C36.7009 20.0753 35.9835 20.218 35.3141 20.4952C34.6448 20.7725 34.0366 21.1789 33.5244 21.6913C33.0121 22.2036 32.6058 22.8118 32.3286 23.4812C32.0514 24.1506 31.9088 24.868 31.9089 25.5925C31.9089 27.0555 32.4901 28.4587 33.5247 29.4932C34.5592 30.5277 35.9623 31.1089 37.4254 31.1089C38.8884 31.1089 40.2915 30.5277 41.326 29.4932C42.3606 28.4587 42.9418 27.0555 42.9418 25.5925C42.9419 24.868 42.7993 24.1506 42.5221 23.4812C42.2449 22.8118 41.8386 22.2036 41.3263 21.6913C40.8141 21.1789 40.2059 20.7725 39.5366 20.4952C38.8672 20.218 38.1498 20.0753 37.4254 20.0753ZM37.4254 28.769C37.0302 28.7691 36.6388 28.6914 36.2737 28.5402C35.9086 28.389 35.5768 28.1674 35.2974 27.8879C35.018 27.6085 34.7963 27.2767 34.6452 26.9116C34.494 26.5465 34.4162 26.1552 34.4163 25.76C34.4163 24.9618 34.7334 24.1964 35.2978 23.632C35.8621 23.0676 36.6276 22.7505 37.4258 22.7505C38.2239 22.7505 38.9894 23.0676 39.5538 23.632C40.1181 24.1964 40.4352 24.9618 40.4352 25.76C40.4348 26.558 40.1175 27.3233 39.5531 27.8875C38.9887 28.4517 38.2234 28.7688 37.4254 28.769Z" fill="white"/>
<path d="M93.9302 12.5515C89.9179 12.5515 75.8752 11.0465 75.8752 11.0465L68.3522 0.495738C68.3522 0.495738 30.7381 -3.37768 23.3818 25.2175H28.9832C28.9832 21.1325 32.7627 16.7754 37.4253 16.7754C42.0888 16.7754 45.8674 21.1325 45.8683 25.2175H72.1145C72.1162 21.1325 75.894 16.7754 80.5566 16.7754C85.2201 16.7754 88.9988 21.1325 88.9996 25.2175H92.5928L96.6059 15.0392C96.6059 15.0392 97.9433 12.5515 93.9302 12.5515ZM43.7784 6.5334C52.4713 2.35361 67.8514 3.19022 67.8514 3.19022L73.5353 11.0474C73.5353 11.0465 35.0838 10.7132 43.7784 6.5334Z" fill="white"/>
<path d="M80.5566 20.0753C79.8321 20.0753 79.1147 20.218 78.4454 20.4952C77.7761 20.7725 77.1679 21.1789 76.6557 21.6913C76.1434 22.2036 75.7371 22.8118 75.4599 23.4812C75.1827 24.1506 75.0401 24.868 75.0402 25.5925C75.0404 26.6835 75.3641 27.75 75.9703 28.657C76.5766 29.5641 77.4382 30.271 78.4462 30.6884C79.4542 31.1058 80.5633 31.2149 81.6333 31.002C82.7034 30.789 83.6862 30.2636 84.4576 29.4921C85.229 28.7206 85.7543 27.7376 85.9671 26.6676C86.1799 25.5975 86.0706 24.4884 85.6531 23.4804C85.2355 22.4725 84.5285 21.611 83.6213 21.0049C82.7142 20.3988 81.6476 20.0753 80.5566 20.0753ZM80.5566 28.769C80.1615 28.7691 79.7701 28.6914 79.405 28.5402C79.0399 28.389 78.7081 28.1674 78.4287 27.8879C78.1493 27.6085 77.9276 27.2767 77.7764 26.9116C77.6253 26.5465 77.5475 26.1552 77.5476 25.76C77.5476 24.0974 78.8932 22.7501 80.5566 22.7501C82.2201 22.7501 83.5665 24.0966 83.5665 25.76C83.5661 26.558 83.2488 27.3233 82.6844 27.8875C82.12 28.4517 81.3547 28.7688 80.5566 28.769Z" fill="white"/>
</g>
<defs>
<clipPath id="clip0_8_17">
<rect width="120" height="55.7626" fill="white"/>
</clipPath>
</defs>
</svg>
