<svg width="40" height="39" viewBox="0 0 40 39" fill="none" xmlns="http://www.w3.org/2000/svg">
<rect width="40" height="38.3505" rx="19.1753" fill="white"/>
<path d="M20 11.3204C22.6506 11.3204 23.0121 11.3204 24.0964 11.3204C25.0602 11.3204 25.5422 11.5514 25.9036 11.6669C26.3855 11.8979 26.747 12.0134 27.1084 12.36C27.4699 12.7065 27.7108 13.0531 27.8313 13.5151C27.9518 13.8617 28.0723 14.3237 28.1928 15.2478C28.1928 16.2874 28.1928 16.5185 28.1928 19.1753C28.1928 21.8321 28.1928 22.0631 28.1928 23.1027C28.1928 24.0269 27.9518 24.4889 27.8313 24.8355C27.5904 25.2975 27.4699 25.644 27.1084 25.9906C26.747 26.3371 26.3855 26.5682 25.9036 26.6837C25.5422 26.7992 25.0602 26.9147 24.0964 27.0302C23.0121 27.0302 22.7711 27.0302 20 27.0302C17.2289 27.0302 16.988 27.0302 15.9036 27.0302C14.9398 27.0302 14.4578 26.7992 14.0964 26.6837C13.6145 26.4526 13.253 26.3371 12.8916 25.9906C12.5301 25.644 12.2892 25.2975 12.1687 24.8355C12.0482 24.4889 11.9277 24.0269 11.8072 23.1027C11.8072 22.0631 11.8072 21.8321 11.8072 19.1753C11.8072 16.5185 11.8072 16.2874 11.8072 15.2478C11.8072 14.3237 12.0482 13.8617 12.1687 13.5151C12.4096 13.0531 12.5301 12.7065 12.8916 12.36C13.253 12.0134 13.6145 11.7824 14.0964 11.6669C14.4578 11.5514 14.9398 11.4359 15.9036 11.3204C16.988 11.3204 17.3494 11.3204 20 11.3204ZM20 9.58765C17.2289 9.58765 16.988 9.58765 15.9036 9.58765C14.8193 9.58765 14.0964 9.81867 13.494 10.0497C12.8916 10.2807 12.2892 10.6273 11.6867 11.2048C11.0843 11.7824 10.8434 12.2445 10.4819 12.9375C10.241 13.5151 10.1205 14.2082 10 15.2478C10 16.2874 10 16.634 10 19.1753C10 21.8321 10 22.0631 10 23.1027C10 24.1424 10.241 24.8355 10.4819 25.413C10.7229 25.9906 11.0843 26.5682 11.6867 27.1457C12.2892 27.7233 12.7711 27.9543 13.494 28.3009C14.0964 28.5319 14.8193 28.6474 15.9036 28.7629C16.988 28.7629 17.3494 28.7629 20 28.7629C22.6506 28.7629 23.0121 28.7629 24.0964 28.7629C25.1807 28.7629 25.9036 28.5319 26.506 28.3009C27.1084 28.0698 27.7108 27.7233 28.3133 27.1457C28.9157 26.5682 29.1566 26.1061 29.5181 25.413C29.759 24.8355 29.8795 24.1424 30 23.1027C30 22.0631 30 21.7166 30 19.1753C30 16.634 30 16.2874 30 15.2478C30 14.2082 29.759 13.5151 29.5181 12.9375C29.2771 12.36 28.9157 11.7824 28.3133 11.2048C27.7108 10.6273 27.2289 10.3962 26.506 10.0497C25.9036 9.81867 25.1807 9.70316 24.0964 9.58765C23.0121 9.58765 22.7711 9.58765 20 9.58765Z" fill="#05001F"/>
<path d="M20 14.2082C17.1084 14.2082 14.8193 16.403 14.8193 19.1753C14.8193 21.9476 17.1084 24.1424 20 24.1424C22.8916 24.1424 25.1807 21.9476 25.1807 19.1753C25.1807 16.403 22.8916 14.2082 20 14.2082ZM20 22.4097C18.1928 22.4097 16.6265 21.0235 16.6265 19.1753C16.6265 17.4426 18.0723 15.9409 20 15.9409C21.8072 15.9409 23.3735 17.3271 23.3735 19.1753C23.3735 20.908 21.8072 22.4097 20 22.4097Z" fill="#05001F"/>
<path d="M25.3012 15.2478C25.9666 15.2478 26.506 14.7306 26.506 14.0927C26.506 13.4547 25.9666 12.9375 25.3012 12.9375C24.6358 12.9375 24.0964 13.4547 24.0964 14.0927C24.0964 14.7306 24.6358 15.2478 25.3012 15.2478Z" fill="#05001F"/>
</svg>
