<svg width="40" height="40" viewBox="0 0 40 40" fill="none" xmlns="http://www.w3.org/2000/svg">
<rect y="0.95874" width="40" height="38.3505" rx="19.1753" fill="white"/>
<path d="M27.9268 12.5239C25.9512 10.6363 23.3171 9.58765 20.5366 9.58765C14.7561 9.58765 10.0732 14.0619 10.0732 19.5848C10.0732 21.3325 10.5854 23.0802 11.4634 24.5484L10 29.7217L15.561 28.3235C17.0976 29.0925 18.7805 29.512 20.5366 29.512C26.3171 29.512 31 25.0377 31 19.5148C30.9268 16.9282 29.9024 14.4114 27.9268 12.5239ZM25.5854 23.1502C25.3659 23.7094 24.3415 24.2687 23.8293 24.3386C23.3902 24.4085 22.8049 24.4085 22.2195 24.2687C21.8537 24.1289 21.3415 23.9891 20.7561 23.7094C18.122 22.6608 16.439 20.144 16.2927 19.9343C16.1463 19.7945 15.1951 18.606 15.1951 17.3476C15.1951 16.0893 15.8537 15.53 16.0732 15.2503C16.2927 14.9707 16.5854 14.9707 16.8049 14.9707C16.9512 14.9707 17.1707 14.9707 17.3171 14.9707C17.4634 14.9707 17.6829 14.9008 17.9024 15.3902C18.122 15.8795 18.6341 17.1379 18.7073 17.2078C18.7805 17.3476 18.7805 17.4875 18.7073 17.6273C18.6341 17.7671 18.561 17.9069 18.4146 18.0467C18.2683 18.1866 18.1219 18.3963 18.0488 18.4662C17.9024 18.606 17.7561 18.7458 17.9024 18.9556C18.0488 19.2352 18.561 20.0042 19.3659 20.7033C20.3902 21.5422 21.1951 21.8219 21.4878 21.9617C21.7805 22.1015 21.9268 22.0316 22.0732 21.8918C22.2195 21.752 22.7317 21.1927 22.878 20.913C23.0244 20.6334 23.2439 20.7033 23.4634 20.7732C23.6829 20.8431 25 21.4723 25.2195 21.6121C25.5122 21.752 25.6585 21.8219 25.7317 21.8918C25.8049 22.1015 25.8049 22.5909 25.5854 23.1502Z" fill="#05001F"/>
</svg>
